<svg
  xmlns="http://www.w3.org/2000/svg"
  width="264"
  height="374"
  viewBox="0 0 264 374"
  fill="none">
  <rect width="264" height="374" fill="#dcdcdc" />
  <rect x="20" y="20" width="224" height="334" fill="#ffffff" rx="16" />
  <path
    d="M132 50c15.4 0 29.67 2.9 42.3 8.19a91.96 91.96 0 0132.1 21.8A92.07 92.07 0 01232 154.57V190c0 7.73-6.27 14-14 14h-12v30a10 10 0 01-10 10h-10v-40h-64v40h-10a10 10 0 01-10-10v-30h-12a14 14 0 01-14-14v-35.43c0-37.41 21.3-70.57 53.6-86.9 2.73-1.33 5.53-2.52 8.4-3.55A91.37 91.37 0 01132 50zm0 20c-13.36 0-26.05 2.62-37.4 7.5-18.98 8.2-34.9 22.03-45.5 39.7C40.93 136.63 36 154.23 36 172.57V190h192v-17.43c0-18.34-4.93-35.94-13.1-50.77-10.6-17.67-26.52-31.5-45.5-39.7C158.05 72.62 145.36 70 132 70z"
    fill="#dcdcdc" />
  <text x="50%" y="70%" text-anchor="middle" fill="#666" font-family="Arial, sans-serif"
    font-size="18px">
    No Cover Art
  </text>
</svg>
